<svg width="372" height="79" viewBox="0 0 372 79" fill="none" xmlns="http://www.w3.org/2000/svg">
<mask id="path-1-outside-1" maskUnits="userSpaceOnUse" x="-0.5" y="-0.09375" width="372" height="79" fill="black">
<rect fill="white" x="-0.5" y="-0.09375" width="372" height="79"/>
<path d="M37.375 58.2188L35.6875 38.0625L19.4688 39.4688L17.5938 57.2812L9.90625 58.0312L5.5 7.03125L23.0312 5.90625L20.125 33.5625L35.3125 33.6562L33.0625 7.21875L50.5 6.09375L45.0625 57.4688L37.375 58.2188Z"/>
<path d="M67.2812 58.7812C66.4062 58.7812 65.7812 58.75 65.4062 58.6875C63.6562 57.5 62.25 55.75 61.1875 53.4375C60.1875 51.125 59.6875 48.5312 59.6875 45.6562C59.6875 42.7188 60.9062 40.5312 63.3438 39.0938C65.8438 37.5938 70.4062 36.8438 77.0312 36.8438C79.4688 36.8438 82.0625 37 84.8125 37.3125L84.625 35.625C84.4375 33.5625 83.4688 31.9375 81.7188 30.75C79.9688 29.5625 77.7188 28.9688 74.9688 28.9688C72.2812 28.9688 69.5938 29.8125 66.9062 31.5L63.5312 20.4375C67.9062 18.625 72.9062 17.7188 78.5312 17.7188C84.1562 17.7188 88.5938 19 91.8438 21.5625C95.1562 24.0625 96.8125 28 96.8125 33.375C96.8125 34.625 96.75 35.5938 96.625 36.2812L94.5625 57.4688L86.875 58.125L85.75 47.0625H85.1875C83.4375 50.75 81 53.625 77.875 55.6875C74.8125 57.75 71.2812 58.7812 67.2812 58.7812ZM85.0938 40.5938L81.0625 40.5C77.6875 40.5 74.9062 40.6875 72.7188 41.0625C72.0312 42.5 71.6875 43.7812 71.6875 44.9062C71.6875 46.0312 71.8125 47.125 72.0625 48.1875C72.375 49.1875 72.7188 49.8438 73.0938 50.1562C79.2188 49.2188 83.2188 46.0312 85.0938 40.5938Z"/>
<path d="M136.938 16.7812C137.875 16.7812 138.844 16.9688 139.844 17.3438C142.469 20.4688 144.25 25.9375 145.188 33.75C146.125 41.5625 146.594 49.3125 146.594 57L132.812 58.125C132.812 46.3125 132.375 35.5938 131.5 25.9688C124.688 28.4688 120.156 38.9688 117.906 57.4688L110.312 58.125L106.469 20.0625L122.875 17.5312L121.094 31.0312H121.844C123.906 26.5938 126.219 23.125 128.781 20.625C131.406 18.0625 134.125 16.7812 136.938 16.7812Z"/>
<path d="M177.344 23.4375C175.469 23.4375 173.844 23.8125 172.469 24.5625C171.781 28.0625 171.438 31.6875 171.438 35.4375C171.438 43.375 171.969 48.5625 173.031 51C175.469 50.5625 178.062 48.9062 180.812 46.0312C182.312 44.4688 183.531 42.25 184.469 39.375C185.469 36.5 185.969 33.1875 185.969 29.4375C185.969 28.8125 185.906 27.6875 185.781 26.0625C183.406 24.3125 180.594 23.4375 177.344 23.4375ZM182.969 73.875C177.844 73.875 172.594 72.0938 167.219 68.5312L169.281 64.6875C173.844 66.6875 177.625 67.6875 180.625 67.6875C183.625 67.6875 185.812 66.875 187.188 65.25C188.625 63.6875 189.344 61.5938 189.344 58.9688C189.344 58.1562 188.812 52.4688 187.75 41.9062H187.094C183.281 52.0938 176.844 57.1875 167.781 57.1875C166.531 57.1875 165.5 57 164.688 56.625C162.812 54.75 161.281 52 160.094 48.375C158.969 44.6875 158.406 40.2188 158.406 34.9688C158.406 29.7188 159.594 25.75 161.969 23.0625C164.344 20.3125 168.469 18.9375 174.344 18.9375C178.656 18.9375 182.375 19.9375 185.5 21.9375L187.188 19.6875L202 17.5312L196.656 60.4688C196.156 64.5938 194.719 67.8438 192.344 70.2188C189.969 72.6562 186.844 73.875 182.969 73.875Z"/>
<path d="M238.562 25.7812C242.688 30.5938 244.75 36.0625 244.75 42.1875C244.75 48.3125 243.531 52.625 241.094 55.125C238.656 57.625 234.156 58.875 227.594 58.875C221.031 58.875 215.938 57.375 212.312 54.375C209.812 42.125 211.25 32.1875 216.625 24.5625C220 19.875 222.969 16.875 225.531 15.5625C230.406 18.0625 234.75 21.4688 238.562 25.7812ZM234.625 50.5312C235.438 47.4062 235.844 43.7812 235.844 39.6562C235.844 35.5312 234.812 31.4688 232.75 27.4688C228.5 29.7188 224.969 33.1562 222.156 37.7812C219.406 42.3438 218.031 46.9688 218.031 51.6562C219.656 51.9688 222 52.125 225.062 52.125C228.188 52.125 231.375 51.5938 234.625 50.5312Z"/>
<path d="M275.594 48C277.469 45.5625 278.75 42.9062 279.438 40.0312C280.188 37.1562 280.562 34.6562 280.562 32.5312C280.562 30.4062 280.281 26.25 279.719 20.0625L296.125 17.625L291.156 57.4688L283.562 58.125L282.062 43.5938H281.5C277.688 53.7188 271.656 58.7812 263.406 58.7812C262.156 58.7812 261.125 58.5625 260.312 58.125C257.688 55 255.906 49.625 254.969 42C254.031 34.375 253.562 26.7812 253.562 19.2188L268.844 18.0938C267.969 27.0312 267.5 33.7188 267.438 38.1562C267.438 42.5938 267.812 47.4062 268.562 52.5938C271.375 51.9688 273.719 50.4375 275.594 48Z"/>
<path d="M313 58.125L309.719 27.1875L302.594 28.125L302.125 20.25L308.875 19.875L307.75 9.1875L326.875 6.5625L325.281 19.0312L332.969 18.6562L332.688 23.8125L324.531 24.9375L320.594 57.4688L313 58.125Z"/>
<path d="M338.969 31.6875C338.969 25.125 342.438 19.125 349.375 13.6875L361.938 22.2188C356.25 25.8438 353.406 29.6562 353.406 33.6562C353.406 35.7812 354.562 38.5312 356.875 41.9062C359.25 45.2812 360.438 47.9062 360.438 49.7812C360.438 56.4688 355.812 61.6562 346.562 65.3438L343.188 60.75C347.25 58.5625 349.281 56.1875 349.281 53.625C349.281 51 347.562 47.7812 344.125 43.9688C342.812 42.5312 341.625 40.7188 340.562 38.5312C339.5 36.2812 338.969 34 338.969 31.6875Z"/>
</mask>
<path d="M37.375 58.2188L35.6875 38.0625L19.4688 39.4688L17.5938 57.2812L9.90625 58.0312L5.5 7.03125L23.0312 5.90625L20.125 33.5625L35.3125 33.6562L33.0625 7.21875L50.5 6.09375L45.0625 57.4688L37.375 58.2188Z" stroke="white" stroke-width="10" mask="url(#path-1-outside-1)"/>
<path d="M67.2812 58.7812C66.4062 58.7812 65.7812 58.75 65.4062 58.6875C63.6562 57.5 62.25 55.75 61.1875 53.4375C60.1875 51.125 59.6875 48.5312 59.6875 45.6562C59.6875 42.7188 60.9062 40.5312 63.3438 39.0938C65.8438 37.5938 70.4062 36.8438 77.0312 36.8438C79.4688 36.8438 82.0625 37 84.8125 37.3125L84.625 35.625C84.4375 33.5625 83.4688 31.9375 81.7188 30.75C79.9688 29.5625 77.7188 28.9688 74.9688 28.9688C72.2812 28.9688 69.5938 29.8125 66.9062 31.5L63.5312 20.4375C67.9062 18.625 72.9062 17.7188 78.5312 17.7188C84.1562 17.7188 88.5938 19 91.8438 21.5625C95.1562 24.0625 96.8125 28 96.8125 33.375C96.8125 34.625 96.75 35.5938 96.625 36.2812L94.5625 57.4688L86.875 58.125L85.75 47.0625H85.1875C83.4375 50.75 81 53.625 77.875 55.6875C74.8125 57.75 71.2812 58.7812 67.2812 58.7812ZM85.0938 40.5938L81.0625 40.5C77.6875 40.5 74.9062 40.6875 72.7188 41.0625C72.0312 42.5 71.6875 43.7812 71.6875 44.9062C71.6875 46.0312 71.8125 47.125 72.0625 48.1875C72.375 49.1875 72.7188 49.8438 73.0938 50.1562C79.2188 49.2188 83.2188 46.0312 85.0938 40.5938Z" stroke="white" stroke-width="10" mask="url(#path-1-outside-1)"/>
<path d="M136.938 16.7812C137.875 16.7812 138.844 16.9688 139.844 17.3438C142.469 20.4688 144.25 25.9375 145.188 33.75C146.125 41.5625 146.594 49.3125 146.594 57L132.812 58.125C132.812 46.3125 132.375 35.5938 131.5 25.9688C124.688 28.4688 120.156 38.9688 117.906 57.4688L110.312 58.125L106.469 20.0625L122.875 17.5312L121.094 31.0312H121.844C123.906 26.5938 126.219 23.125 128.781 20.625C131.406 18.0625 134.125 16.7812 136.938 16.7812Z" stroke="white" stroke-width="10" mask="url(#path-1-outside-1)"/>
<path d="M177.344 23.4375C175.469 23.4375 173.844 23.8125 172.469 24.5625C171.781 28.0625 171.438 31.6875 171.438 35.4375C171.438 43.375 171.969 48.5625 173.031 51C175.469 50.5625 178.062 48.9062 180.812 46.0312C182.312 44.4688 183.531 42.25 184.469 39.375C185.469 36.5 185.969 33.1875 185.969 29.4375C185.969 28.8125 185.906 27.6875 185.781 26.0625C183.406 24.3125 180.594 23.4375 177.344 23.4375ZM182.969 73.875C177.844 73.875 172.594 72.0938 167.219 68.5312L169.281 64.6875C173.844 66.6875 177.625 67.6875 180.625 67.6875C183.625 67.6875 185.812 66.875 187.188 65.25C188.625 63.6875 189.344 61.5938 189.344 58.9688C189.344 58.1562 188.812 52.4688 187.75 41.9062H187.094C183.281 52.0938 176.844 57.1875 167.781 57.1875C166.531 57.1875 165.5 57 164.688 56.625C162.812 54.75 161.281 52 160.094 48.375C158.969 44.6875 158.406 40.2188 158.406 34.9688C158.406 29.7188 159.594 25.75 161.969 23.0625C164.344 20.3125 168.469 18.9375 174.344 18.9375C178.656 18.9375 182.375 19.9375 185.5 21.9375L187.188 19.6875L202 17.5312L196.656 60.4688C196.156 64.5938 194.719 67.8438 192.344 70.2188C189.969 72.6562 186.844 73.875 182.969 73.875Z" stroke="white" stroke-width="10" mask="url(#path-1-outside-1)"/>
<path d="M238.562 25.7812C242.688 30.5938 244.75 36.0625 244.75 42.1875C244.75 48.3125 243.531 52.625 241.094 55.125C238.656 57.625 234.156 58.875 227.594 58.875C221.031 58.875 215.938 57.375 212.312 54.375C209.812 42.125 211.25 32.1875 216.625 24.5625C220 19.875 222.969 16.875 225.531 15.5625C230.406 18.0625 234.75 21.4688 238.562 25.7812ZM234.625 50.5312C235.438 47.4062 235.844 43.7812 235.844 39.6562C235.844 35.5312 234.812 31.4688 232.75 27.4688C228.5 29.7188 224.969 33.1562 222.156 37.7812C219.406 42.3438 218.031 46.9688 218.031 51.6562C219.656 51.9688 222 52.125 225.062 52.125C228.188 52.125 231.375 51.5938 234.625 50.5312Z" stroke="white" stroke-width="10" mask="url(#path-1-outside-1)"/>
<path d="M275.594 48C277.469 45.5625 278.75 42.9062 279.438 40.0312C280.188 37.1562 280.562 34.6562 280.562 32.5312C280.562 30.4062 280.281 26.25 279.719 20.0625L296.125 17.625L291.156 57.4688L283.562 58.125L282.062 43.5938H281.5C277.688 53.7188 271.656 58.7812 263.406 58.7812C262.156 58.7812 261.125 58.5625 260.312 58.125C257.688 55 255.906 49.625 254.969 42C254.031 34.375 253.562 26.7812 253.562 19.2188L268.844 18.0938C267.969 27.0312 267.5 33.7188 267.438 38.1562C267.438 42.5938 267.812 47.4062 268.562 52.5938C271.375 51.9688 273.719 50.4375 275.594 48Z" stroke="white" stroke-width="10" mask="url(#path-1-outside-1)"/>
<path d="M313 58.125L309.719 27.1875L302.594 28.125L302.125 20.25L308.875 19.875L307.75 9.1875L326.875 6.5625L325.281 19.0312L332.969 18.6562L332.688 23.8125L324.531 24.9375L320.594 57.4688L313 58.125Z" stroke="white" stroke-width="10" mask="url(#path-1-outside-1)"/>
<path d="M338.969 31.6875C338.969 25.125 342.438 19.125 349.375 13.6875L361.938 22.2188C356.25 25.8438 353.406 29.6562 353.406 33.6562C353.406 35.7812 354.562 38.5312 356.875 41.9062C359.25 45.2812 360.438 47.9062 360.438 49.7812C360.438 56.4688 355.812 61.6562 346.562 65.3438L343.188 60.75C347.25 58.5625 349.281 56.1875 349.281 53.625C349.281 51 347.562 47.7812 344.125 43.9688C342.812 42.5312 341.625 40.7188 340.562 38.5312C339.5 36.2812 338.969 34 338.969 31.6875Z" stroke="white" stroke-width="10" mask="url(#path-1-outside-1)"/>
</svg>
